simulation
nRows=68
nColumns=15
endheader
time  TH_x TH_y TH_z SC_y  SC_z  SC_x  AC_y  AC_z  AC_x  GH_y  GH_z  GH_yy  EL_x  PS_y
0.500000  0.000000  0.000000  0.000000  -26.518849  4.058251  20.000000  56.056346  22.195790  5.031021  1.607991  29.952625  4.390600  18.913284  120.817695
0.500234  0.000000  0.000000  0.000000  -26.518849  4.058251  22.500000  56.592879  20.115185  3.544701  1.607991  29.952625  4.390600  18.913284  120.817695
0.500468  0.000000  0.000000  0.000000  -26.518849  4.058251  25.000000  57.065795  18.022456  2.097507  1.607991  29.952625  4.390600  18.913284  120.817695
0.500702  0.000000  0.000000  0.000000  -26.518849  4.058251  27.500000  57.478328  15.919228  0.684436  1.607991  29.952625  4.390600  18.913284  120.817695
0.500936  0.000000  0.000000  0.000000  -26.518849  4.058251  30.000000  57.833349  13.806998  -0.699296  1.607991  29.952625  4.390600  18.913284  120.817695
0.501170  0.000000  0.000000  0.000000  -26.518849  4.058251  32.500000  58.133239  11.687164  -2.058132  1.607991  29.952625  4.390600  18.913284  120.817695
0.501404  0.000000  0.000000  0.000000  -26.518849  4.058251  35.000000  58.380006  9.561035  -3.396292  1.607991  29.952625  4.390600  18.913284  120.817695
0.501638  0.000000  0.000000  0.000000  -26.518849  4.058251  37.500000  58.575267  7.429847  -4.717788  1.607991  29.952625  4.390600  18.913284  120.817695
0.501872  0.000000  0.000000  0.000000  -26.518849  4.058251  40.000000  58.720325  5.294789  -6.026517  1.607991  29.952625  4.390600  18.913284  120.817695
0.502106  0.000000  0.000000  0.000000  -26.518849  4.058251  42.500000  58.816120  3.157004  -7.326229  1.607991  29.952625  4.390600  18.913284  120.817695
0.502340  0.000000  0.000000  0.000000  -26.518849  4.058251  45.000000  58.863272  1.017601  -8.620599  1.607991  29.952625  4.390600  18.913284  120.817695
0.502574  0.000000  0.000000  0.000000  -26.518849  4.058251  47.500000  58.862094  -1.122310  -9.913250  1.607991  29.952625  4.390600  18.913284  120.817695
0.502808  0.000000  0.000000  0.000000  -26.518849  4.058251  50.000000  58.812567  -3.261655  -11.207797  1.607991  29.952625  4.390600  18.913284  120.817695
0.503042  0.000000  0.000000  0.000000  -31.811284  8.508851  -10.000000  40.140043  43.594126  40.203216  -21.632780  40.311837  -16.065686  12.460625  127.442077
0.503276  0.000000  0.000000  0.000000  -31.811284  8.508851  -7.500000  41.885610  41.953218  37.633315  -21.632780  40.311837  -16.065686  12.460625  127.442077
0.503510  0.000000  0.000000  0.000000  -31.811284  8.508851  -5.000000  43.489323  40.257899  35.194493  -21.632780  40.311837  -16.065686  12.460625  127.442077
0.503744  0.000000  0.000000  0.000000  -31.811284  8.508851  -2.500000  44.960425  38.513934  32.876571  -21.632780  40.311837  -16.065686  12.460625  127.442077
0.503978  0.000000  0.000000  0.000000  -31.811284  8.508851  0.000000  46.307864  36.726448  30.669630  -21.632780  40.311837  -16.065686  12.460625  127.442077
0.504212  0.000000  0.000000  0.000000  -31.811284  8.508851  2.500000  47.540113  34.900087  28.564166  -21.632780  40.311837  -16.065686  12.460625  127.442077
0.504445  0.000000  0.000000  0.000000  -31.811284  8.508851  5.000000  48.665107  33.039009  26.551167  -21.632780  40.311837  -16.065686  12.460625  127.442077
0.504679  0.000000  0.000000  0.000000  -31.811284  8.508851  7.500000  49.690189  31.146954  24.622152  -21.632780  40.311837  -16.065686  12.460625  127.442077
0.504913  0.000000  0.000000  0.000000  -31.811284  8.508851  10.000000  50.622098  29.227281  22.769182  -21.632780  40.311837  -16.065686  12.460625  127.442077
0.505147  0.000000  0.000000  0.000000  -31.811284  8.508851  12.500000  51.466990  27.283019  20.984842  -21.632780  40.311837  -16.065686  12.460625  127.442077
0.505381  0.000000  0.000000  0.000000  -31.811284  8.508851  15.000000  52.230382  25.316901  19.262243  -21.632780  40.311837  -16.065686  12.460625  127.442077
0.505615  0.000000  0.000000  0.000000  -31.811284  8.508851  17.500000  52.917277  23.331407  17.594958  -21.632780  40.311837  -16.065686  12.460625  127.442077
0.505849  0.000000  0.000000  0.000000  -31.811284  8.508851  20.000000  53.532126  21.328788  15.977006  -21.632780  40.311837  -16.065686  12.460625  127.442077
0.506083  0.000000  0.000000  0.000000  -31.811284  8.508851  22.500000  54.078913  19.311112  14.402787  -21.632780  40.311837  -16.065686  12.460625  127.442077
0.506317  0.000000  0.000000  0.000000  -31.811284  8.508851  25.000000  54.561115  17.280271  12.867074  -21.632780  40.311837  -16.065686  12.460625  127.442077
0.506551  0.000000  0.000000  0.000000  -31.811284  8.508851  27.500000  54.981758  15.238002  11.364981  -21.632780  40.311837  -16.065686  12.460625  127.442077
0.506785  0.000000  0.000000  0.000000  -31.811284  8.508851  30.000000  55.343506  13.185944  9.891846  -21.632780  40.311837  -16.065686  12.460625  127.442077
0.507019  0.000000  0.000000  0.000000  -31.811284  8.508851  32.500000  55.648599  11.125615  8.443280  -21.632780  40.311837  -16.065686  12.460625  127.442077
0.507253  0.000000  0.000000  0.000000  -31.811284  8.508851  35.000000  55.898912  9.058450  7.015101  -21.632780  40.311837  -16.065686  12.460625  127.442077
0.507487  0.000000  0.000000  0.000000  -31.811284  8.508851  37.500000  56.095975  6.985810  5.603291  -21.632780  40.311837  -16.065686  12.460625  127.442077
0.507721  0.000000  0.000000  0.000000  -31.811284  8.508851  40.000000  56.240999  4.909010  4.203953  -21.632780  40.311837  -16.065686  12.460625  127.442077
0.507955  0.000000  0.000000  0.000000  -31.811284  8.508851  42.500000  56.334849  2.829326  2.813321  -21.632780  40.311837  -16.065686  12.460625  127.442077
0.508189  0.000000  0.000000  0.000000  -31.811284  8.508851  45.000000  56.378117  0.747959  1.427647  -21.632780  40.311837  -16.065686  12.460625  127.442077
0.508423  0.000000  0.000000  0.000000  -31.811284  8.508851  47.500000  56.371041  -1.333841  0.043301  -21.632780  40.311837  -16.065686  12.460625  127.442077
0.508657  0.000000  0.000000  0.000000  -31.811284  8.508851  50.000000  56.313580  -3.414847  -1.343385  -21.632780  40.311837  -16.065686  12.460625  127.442077
0.508891  0.000000  0.000000  0.000000  -30.147983  -1.616463  -10.000000  50.976475  46.240142  26.287164  -19.141778  34.773097  -2.616561  29.389955  120.913867
0.509125  0.000000  0.000000  0.000000  -30.147983  -1.616463  -7.500000  52.538255  44.276336  24.088818  -19.141778  34.773097  -2.616561  29.389955  120.913867
0.509359  0.000000  0.000000  0.000000  -30.147983  -1.616463  -5.000000  53.947095  42.273126  22.034043  -19.141778  34.773097  -2.616561  29.389955  120.913867
0.509593  0.000000  0.000000  0.000000  -30.147983  -1.616463  -2.500000  55.218102  40.235511  20.106938  -19.141778  34.773097  -2.616561  29.389955  120.913867
0.509827  0.000000  0.000000  0.000000  -30.147983  -1.616463  0.000000  56.364686  38.167811  18.293258  -19.141778  34.773097  -2.616561  29.389955  120.913867
0.510061  0.000000  0.000000  0.000000  -30.147983  -1.616463  2.500000  57.398683  36.073767  16.580283  -19.141778  34.773097  -2.616561  29.389955  120.913867
0.510295  0.000000  0.000000  0.000000  -30.147983  -1.616463  5.000000  58.330501  33.956624  14.956671  -19.141778  34.773097  -2.616561  29.389955  120.913867
0.510529  0.000000  0.000000  0.000000  -30.147983  -1.616463  7.500000  59.169279  31.819199  13.412286  -19.141778  34.773097  -2.616561  29.389955  120.913867
0.510763  0.000000  0.000000  0.000000  -30.147983  -1.616463  10.000000  59.923003  29.663971  11.938088  -19.141778  34.773097  -2.616561  29.389955  120.913867
0.510997  0.000000  0.000000  0.000000  -30.147983  -1.616463  12.500000  60.598661  27.493121  10.525963  -19.141778  34.773097  -2.616561  29.389955  120.913867
0.511231  0.000000  0.000000  0.000000  -30.147983  -1.616463  15.000000  61.202315  25.308566  9.168659  -19.141778  34.773097  -2.616561  29.389955  120.913867
0.511465  0.000000  0.000000  0.000000  -30.147983  -1.616463  17.500000  61.739271  23.112027  7.859575  -19.141778  34.773097  -2.616561  29.389955  120.913867
0.511699  0.000000  0.000000  0.000000  -30.147983  -1.616463  20.000000  62.214103  20.905038  6.592756  -19.141778  34.773097  -2.616561  29.389955  120.913867
0.511933  0.000000  0.000000  0.000000  -30.147983  -1.616463  22.500000  62.630786  18.688986  5.362757  -19.141778  34.773097  -2.616561  29.389955  120.913867
0.512167  0.000000  0.000000  0.000000  -30.147983  -1.616463  25.000000  62.992704  16.465129  4.164589  -19.141778  34.773097  -2.616561  29.389955  120.913867
0.512401  0.000000  0.000000  0.000000  -30.147983  -1.616463  27.500000  63.302727  14.234611  2.993666  -19.141778  34.773097  -2.616561  29.389955  120.913867
0.512635  0.000000  0.000000  0.000000  -30.147983  -1.616463  30.000000  63.563304  11.998504  1.845673  -19.141778  34.773097  -2.616561  29.389955  120.913867
0.512869  0.000000  0.000000  0.000000  -30.147983  -1.616463  32.500000  63.776432  9.757798  0.716597  -19.141778  34.773097  -2.616561  29.389955  120.913867
0.513102  0.000000  0.000000  0.000000  -30.147983  -1.616463  35.000000  63.943729  7.513423  -0.397370  -19.141778  34.773097  -2.616561  29.389955  120.913867
0.513336  0.000000  0.000000  0.000000  -30.147983  -1.616463  37.500000  64.066457  5.266271  -1.499876  -19.141778  34.773097  -2.616561  29.389955  120.913867
0.513570  0.000000  0.000000  0.000000  -30.147983  -1.616463  40.000000  64.145523  3.017194  -2.594431  -19.141778  34.773097  -2.616561  29.389955  120.913867
0.513804  0.000000  0.000000  0.000000  -30.147983  -1.616463  42.500000  64.181526  0.767022  -3.684469  -19.141778  34.773097  -2.616561  29.389955  120.913867
0.514038  0.000000  0.000000  0.000000  -30.147983  -1.616463  45.000000  64.174719  -1.483427  -4.773357  -19.141778  34.773097  -2.616561  29.389955  120.913867
0.514272  0.000000  0.000000  0.000000  -30.147983  -1.616463  47.500000  64.125042  -3.733337  -5.864460  -19.141778  34.773097  -2.616561  29.389955  120.913867
0.514506  0.000000  0.000000  0.000000  -30.147983  -1.616463  50.000000  64.032161  -5.981895  -6.961178  -19.141778  34.773097  -2.616561  29.389955  120.913867
0.514740  0.000000  0.000000  0.000000  -45.654282  16.638936  -10.000000  38.167539  36.856567  42.099803  -9.062323  22.991838  15.635727  15.503044  127.145964
0.514974  0.000000  0.000000  0.000000  -45.654282  16.638936  -7.500000  39.585529  35.287199  39.691960  -9.062323  22.991838  15.635727  15.503044  127.145964
0.515208  0.000000  0.000000  0.000000  -45.654282  16.638936  -5.000000  40.896331  33.671932  37.376961  -9.062323  22.991838  15.635727  15.503044  127.145964
0.515442  0.000000  0.000000  0.000000  -45.654282  16.638936  -2.500000  42.105220  32.015114  35.148397  -9.062323  22.991838  15.635727  15.503044  127.145964
0.515676  0.000000  0.000000  0.000000  -45.654282  16.638936  0.000000  43.217403  30.320728  32.999872  -9.062323  22.991838  15.635727  15.503044  127.145964
